<mxfile version="13.6.9" type="github" host="app.diagrams.net" modified="2020-09-16T19:04:03.824Z" agent="5.0 (Windows NT 10.0; Win64; x64) AppleWebKit/537.36 (KHTML, like Gecko) Chrome/64.0.3282.140 Safari/537.36 Edge/18.17763" etag="AfSmB6exiQUSY4BoQOVs">
  <diagram id="XE45euI3UaWMFM7cNjVr" name="Page-1">
    <mxGraphModel grid="1" dx="1363" dy="749" gridSize="10" guides="1" tooltips="1" connect="1" arrows="1" fold="1" page="1" pageScale="1" pageWidth="850" pageHeight="1100" math="0" shadow="0">
      <root>
        <mxCell id="0" />
        <mxCell id="1" parent="0" />
        <mxCell id="jTXSWWIvGgRx7QMcHlvk-2" value="" parent="1" style="html=1;strokeWidth=1;shadow=0;dashed=0;shape=mxgraph.ios7.misc.bluetooth;fillColor=#007AFF;strokeColor=none;buttonText=;strokeColor2=#222222;fontColor=#222222;fontSize=8;verticalLabelPosition=bottom;verticalAlign=top;align=center;" vertex="1">
          <mxGeometry as="geometry" y="390" x="20" width="60" height="60" />
        </mxCell>
        <mxCell id="jTXSWWIvGgRx7QMcHlvk-6" parent="1" style="edgeStyle=orthogonalEdgeStyle;rounded=0;orthogonalLoop=1;jettySize=auto;html=1;entryX=0;entryY=0.5;entryDx=0;entryDy=0;" edge="1" source="jTXSWWIvGgRx7QMcHlvk-2" target="jTXSWWIvGgRx7QMcHlvk-3">
          <mxGeometry as="geometry" relative="1" />
        </mxCell>
        <mxCell id="jTXSWWIvGgRx7QMcHlvk-24" parent="1" style="edgeStyle=orthogonalEdgeStyle;curved=1;rounded=0;orthogonalLoop=1;jettySize=auto;html=1;exitX=0.5;exitY=1;exitDx=0;exitDy=0;entryX=0.5;entryY=1;entryDx=0;entryDy=0;fontSize=13;" edge="1" source="jTXSWWIvGgRx7QMcHlvk-3" target="jTXSWWIvGgRx7QMcHlvk-4">
          <mxGeometry as="geometry" relative="1">
            <Array as="points">
              <mxPoint y="520" x="160" />
              <mxPoint y="520" x="390" />
            </Array>
          </mxGeometry>
        </mxCell>
        <mxCell id="jTXSWWIvGgRx7QMcHlvk-3" value="readStream" parent="1" style="ellipse;whiteSpace=wrap;html=1;aspect=fixed;fillColor=#fff2cc;strokeColor=#d6b656;fontSize=13;fontStyle=1" vertex="1">
          <mxGeometry as="geometry" y="380" x="120" width="80" height="80" />
        </mxCell>
        <mxCell id="jTXSWWIvGgRx7QMcHlvk-25" parent="1" style="edgeStyle=orthogonalEdgeStyle;curved=1;rounded=0;orthogonalLoop=1;jettySize=auto;html=1;exitX=0.5;exitY=0;exitDx=0;exitDy=0;entryX=0.5;entryY=0;entryDx=0;entryDy=0;fontSize=13;" edge="1" source="jTXSWWIvGgRx7QMcHlvk-4" target="jTXSWWIvGgRx7QMcHlvk-3">
          <mxGeometry as="geometry" relative="1">
            <Array as="points">
              <mxPoint y="320" x="390" />
              <mxPoint y="320" x="160" />
            </Array>
          </mxGeometry>
        </mxCell>
        <mxCell id="jTXSWWIvGgRx7QMcHlvk-34" parent="1" style="edgeStyle=orthogonalEdgeStyle;curved=1;rounded=0;orthogonalLoop=1;jettySize=auto;html=1;exitX=1;exitY=0.5;exitDx=0;exitDy=0;entryX=0;entryY=0.5;entryDx=0;entryDy=0;fontSize=13;" edge="1" source="jTXSWWIvGgRx7QMcHlvk-4" target="jTXSWWIvGgRx7QMcHlvk-41">
          <mxGeometry as="geometry" relative="1">
            <mxPoint as="targetPoint" y="240" x="510.00000000000636" />
            <Array as="points">
              <mxPoint y="420" x="450" />
              <mxPoint y="240" x="450" />
            </Array>
          </mxGeometry>
        </mxCell>
        <mxCell id="jTXSWWIvGgRx7QMcHlvk-35" parent="1" style="edgeStyle=orthogonalEdgeStyle;curved=1;rounded=0;orthogonalLoop=1;jettySize=auto;html=1;exitX=1;exitY=0.5;exitDx=0;exitDy=0;entryX=0;entryY=0.5;entryDx=0;entryDy=0;fontSize=13;" edge="1" source="jTXSWWIvGgRx7QMcHlvk-4" target="jTXSWWIvGgRx7QMcHlvk-42">
          <mxGeometry as="geometry" relative="1">
            <mxPoint as="targetPoint" y="330" x="510.00000000000636" />
          </mxGeometry>
        </mxCell>
        <mxCell id="jTXSWWIvGgRx7QMcHlvk-36" parent="1" style="edgeStyle=orthogonalEdgeStyle;curved=1;rounded=0;orthogonalLoop=1;jettySize=auto;html=1;exitX=1;exitY=0.5;exitDx=0;exitDy=0;entryX=0;entryY=0.5;entryDx=0;entryDy=0;fontSize=13;" edge="1" source="jTXSWWIvGgRx7QMcHlvk-4" target="jTXSWWIvGgRx7QMcHlvk-43">
          <mxGeometry as="geometry" relative="1">
            <mxPoint as="targetPoint" y="420" x="510.00000000000636" />
          </mxGeometry>
        </mxCell>
        <mxCell id="jTXSWWIvGgRx7QMcHlvk-37" parent="1" style="edgeStyle=orthogonalEdgeStyle;curved=1;rounded=0;orthogonalLoop=1;jettySize=auto;html=1;exitX=1;exitY=0.5;exitDx=0;exitDy=0;entryX=0;entryY=0.5;entryDx=0;entryDy=0;fontSize=13;" edge="1" source="jTXSWWIvGgRx7QMcHlvk-4" target="jTXSWWIvGgRx7QMcHlvk-44">
          <mxGeometry as="geometry" relative="1">
            <mxPoint as="targetPoint" y="510" x="510.00000000000636" />
          </mxGeometry>
        </mxCell>
        <mxCell id="jTXSWWIvGgRx7QMcHlvk-38" parent="1" style="edgeStyle=orthogonalEdgeStyle;curved=1;rounded=0;orthogonalLoop=1;jettySize=auto;html=1;exitX=1;exitY=0.5;exitDx=0;exitDy=0;entryX=0;entryY=0.5;entryDx=0;entryDy=0;fontSize=13;" edge="1" source="jTXSWWIvGgRx7QMcHlvk-4" target="jTXSWWIvGgRx7QMcHlvk-45">
          <mxGeometry as="geometry" relative="1">
            <mxPoint as="targetPoint" y="650" x="510.00000000000636" />
            <Array as="points">
              <mxPoint y="420" x="450" />
              <mxPoint y="650" x="450" />
            </Array>
          </mxGeometry>
        </mxCell>
        <mxCell id="jTXSWWIvGgRx7QMcHlvk-4" value="sortData" parent="1" style="ellipse;whiteSpace=wrap;html=1;aspect=fixed;fillColor=#fff2cc;strokeColor=#d6b656;fontSize=13;fontStyle=1" vertex="1">
          <mxGeometry as="geometry" y="380" x="350" width="80" height="80" />
        </mxCell>
        <mxCell id="jTXSWWIvGgRx7QMcHlvk-13" value="Thread 1" parent="1" style="rhombus;whiteSpace=wrap;html=1;" vertex="1">
          <mxGeometry as="geometry" y="380" x="240" width="80" height="80" />
        </mxCell>
        <mxCell id="jTXSWWIvGgRx7QMcHlvk-18" value="" parent="1" style="shape=image;html=1;verticalAlign=top;verticalLabelPosition=bottom;labelBackgroundColor=#ffffff;imageAspect=0;aspect=fixed;image=https://cdn3.iconfinder.com/data/icons/virtual-notebook/128/button_switch-128.png;fontSize=13;rotation=90;" vertex="1">
          <mxGeometry as="geometry" y="550" x="550" width="60" height="60" />
        </mxCell>
        <mxCell id="jTXSWWIvGgRx7QMcHlvk-40" parent="1" style="edgeStyle=orthogonalEdgeStyle;curved=1;rounded=0;orthogonalLoop=1;jettySize=auto;html=1;exitX=0.5;exitY=1;exitDx=0;exitDy=0;entryX=0.5;entryY=0;entryDx=0;entryDy=0;fontSize=13;" edge="1" source="jTXSWWIvGgRx7QMcHlvk-39" target="jTXSWWIvGgRx7QMcHlvk-3">
          <mxGeometry as="geometry" relative="1" />
        </mxCell>
        <mxCell id="jTXSWWIvGgRx7QMcHlvk-39" value="&lt;span style=&quot;font: bold 13px / 1.2 &amp;#34;helvetica&amp;#34; ; text-align: center ; color: rgb(0 , 0 , 0) ; text-transform: none ; text-indent: 0px ; letter-spacing: normal ; text-decoration: none ; word-spacing: 0px ; display: inline ; float: none ; overflow-wrap: normal ; background-color: rgb(248 , 249 , 250)&quot;&gt;Controller_BlueTooth&lt;/span&gt;" parent="1" style="rounded=1;whiteSpace=wrap;html=1;fontSize=13;fillColor=#fff2cc;strokeColor=#d6b656;" vertex="1">
          <mxGeometry as="geometry" y="210" x="85" width="150" height="60" />
        </mxCell>
        <mxCell id="jTXSWWIvGgRx7QMcHlvk-41" value="&lt;span style=&quot;font: bold 13px / 1.2 &amp;#34;helvetica&amp;#34; ; text-align: center ; color: rgb(0 , 0 , 0) ; text-transform: none ; text-indent: 0px ; letter-spacing: normal ; text-decoration: none ; word-spacing: 0px ; display: inline ; float: none ; overflow-wrap: normal ; background-color: rgb(248 , 249 , 250)&quot;&gt;L1_Trigger&lt;/span&gt;" parent="1" style="rounded=1;whiteSpace=wrap;html=1;fontSize=13;" vertex="1">
          <mxGeometry as="geometry" y="210" x="520" width="120" height="60" />
        </mxCell>
        <mxCell id="jTXSWWIvGgRx7QMcHlvk-42" value="&lt;span style=&quot;font: bold 13px / 1.2 &amp;#34;helvetica&amp;#34; ; text-align: center ; color: rgb(0 , 0 , 0) ; text-transform: none ; text-indent: 0px ; letter-spacing: normal ; text-decoration: none ; word-spacing: 0px ; display: inline ; float: none ; overflow-wrap: normal ; background-color: rgb(248 , 249 , 250)&quot;&gt;L2_Trigger&lt;/span&gt;" parent="1" style="rounded=1;whiteSpace=wrap;html=1;fontSize=13;" vertex="1">
          <mxGeometry as="geometry" y="300" x="520" width="120" height="60" />
        </mxCell>
        <mxCell id="jTXSWWIvGgRx7QMcHlvk-43" value="&lt;span style=&quot;font: bold 13px / 1.2 &amp;#34;helvetica&amp;#34; ; text-align: center ; color: rgb(0 , 0 , 0) ; text-transform: none ; text-indent: 0px ; letter-spacing: normal ; text-decoration: none ; word-spacing: 0px ; display: inline ; float: none ; overflow-wrap: normal ; background-color: rgb(248 , 249 , 250)&quot;&gt;R1_Trigger&lt;/span&gt;" parent="1" style="rounded=1;whiteSpace=wrap;html=1;fontSize=13;" vertex="1">
          <mxGeometry as="geometry" y="390" x="520" width="120" height="60" />
        </mxCell>
        <mxCell id="jTXSWWIvGgRx7QMcHlvk-44" value="&lt;span style=&quot;font: bold 13px / 1.2 &amp;#34;helvetica&amp;#34; ; text-align: center ; color: rgb(0 , 0 , 0) ; text-transform: none ; text-indent: 0px ; letter-spacing: normal ; text-decoration: none ; word-spacing: 0px ; display: inline ; float: none ; overflow-wrap: normal ; background-color: rgb(248 , 249 , 250)&quot;&gt;R2_Trigger&lt;/span&gt;" parent="1" style="rounded=1;whiteSpace=wrap;html=1;fontSize=13;" vertex="1">
          <mxGeometry as="geometry" y="480" x="520" width="120" height="60" />
        </mxCell>
        <mxCell id="jTXSWWIvGgRx7QMcHlvk-45" value="&lt;span style=&#39;font: bold 13px/1.2 &quot;helvetica&quot;; text-align: center; color: rgb(0, 0, 0); text-transform: none; text-indent: 0px; letter-spacing: normal; text-decoration: none; word-spacing: 0px; display: inline; float: none; overflow-wrap: normal; background-color: rgb(248, 249, 250);&#39;&gt;X_Button&lt;/span&gt;" parent="1" style="rounded=1;whiteSpace=wrap;html=1;fontSize=13;fillColor=#d5e8d4;strokeColor=#82b366;" vertex="1">
          <mxGeometry as="geometry" y="620" x="520" width="120" height="60" />
        </mxCell>
        <mxCell id="jTXSWWIvGgRx7QMcHlvk-47" value="&lt;span style=&quot;font: bold 13px / 1.2 &amp;#34;helvetica&amp;#34; ; text-align: center ; color: rgb(0 , 0 , 0) ; text-transform: none ; text-indent: 0px ; letter-spacing: normal ; text-decoration: none ; word-spacing: 0px ; display: inline ; float: none ; overflow-wrap: normal ; background-color: rgb(248 , 249 , 250)&quot;&gt;L1_Trigger&lt;/span&gt;" parent="1" style="rounded=1;whiteSpace=wrap;html=1;fontSize=13;fillColor=#d5e8d4;strokeColor=#82b366;" vertex="1">
          <mxGeometry as="geometry" y="210" x="520" width="120" height="60" />
        </mxCell>
        <mxCell id="jTXSWWIvGgRx7QMcHlvk-48" value="&lt;span style=&quot;font: bold 13px / 1.2 &amp;#34;helvetica&amp;#34; ; text-align: center ; color: rgb(0 , 0 , 0) ; text-transform: none ; text-indent: 0px ; letter-spacing: normal ; text-decoration: none ; word-spacing: 0px ; display: inline ; float: none ; overflow-wrap: normal ; background-color: rgb(248 , 249 , 250)&quot;&gt;L2_Trigger&lt;/span&gt;" parent="1" style="rounded=1;whiteSpace=wrap;html=1;fontSize=13;fillColor=#d5e8d4;strokeColor=#82b366;" vertex="1">
          <mxGeometry as="geometry" y="300" x="520" width="120" height="60" />
        </mxCell>
        <mxCell id="jTXSWWIvGgRx7QMcHlvk-49" value="&lt;span style=&quot;font: bold 13px / 1.2 &amp;#34;helvetica&amp;#34; ; text-align: center ; color: rgb(0 , 0 , 0) ; text-transform: none ; text-indent: 0px ; letter-spacing: normal ; text-decoration: none ; word-spacing: 0px ; display: inline ; float: none ; overflow-wrap: normal ; background-color: rgb(248 , 249 , 250)&quot;&gt;R1_Trigger&lt;/span&gt;" parent="1" style="rounded=1;whiteSpace=wrap;html=1;fontSize=13;fillColor=#d5e8d4;strokeColor=#82b366;" vertex="1">
          <mxGeometry as="geometry" y="390" x="520" width="120" height="60" />
        </mxCell>
        <mxCell id="jTXSWWIvGgRx7QMcHlvk-50" value="&lt;span style=&quot;font: bold 13px / 1.2 &amp;#34;helvetica&amp;#34; ; text-align: center ; color: rgb(0 , 0 , 0) ; text-transform: none ; text-indent: 0px ; letter-spacing: normal ; text-decoration: none ; word-spacing: 0px ; display: inline ; float: none ; overflow-wrap: normal ; background-color: rgb(248 , 249 , 250)&quot;&gt;R2_Trigger&lt;/span&gt;" parent="1" style="rounded=1;whiteSpace=wrap;html=1;fontSize=13;fillColor=#d5e8d4;strokeColor=#82b366;" vertex="1">
          <mxGeometry as="geometry" y="480" x="520" width="120" height="60" />
        </mxCell>
        <mxCell id="jTXSWWIvGgRx7QMcHlvk-51" value="Controller_Button" parent="1" style="rounded=1;whiteSpace=wrap;html=1;fontSize=14;strokeColor=#2D7600;fontStyle=1;fillColor=#7AD61D;fontColor=#030303;" vertex="1">
          <mxGeometry as="geometry" y="110" x="510" width="140" height="60" />
        </mxCell>
        <mxCell id="jTXSWWIvGgRx7QMcHlvk-52" value="Base Class" parent="1" style="text;html=1;strokeColor=none;fillColor=none;align=center;verticalAlign=middle;whiteSpace=wrap;rounded=0;fontSize=14;fontColor=#030303;" vertex="1">
          <mxGeometry as="geometry" y="140" x="670" width="90" height="20" />
        </mxCell>
        <mxCell id="jTXSWWIvGgRx7QMcHlvk-53" value="Child Class" parent="1" style="text;html=1;strokeColor=none;fillColor=none;align=center;verticalAlign=middle;whiteSpace=wrap;rounded=0;fontSize=14;fontColor=#030303;" vertex="1">
          <mxGeometry as="geometry" y="410" x="670" width="90" height="20" />
        </mxCell>
        <mxCell id="jTXSWWIvGgRx7QMcHlvk-54" value="" parent="1" style="endArrow=none;html=1;fontSize=14;fontColor=#030303;strokeWidth=3;" edge="1">
          <mxGeometry as="geometry" width="50" height="50" relative="1">
            <mxPoint as="sourcePoint" y="190" x="510" />
            <mxPoint as="targetPoint" y="190" x="770" />
          </mxGeometry>
        </mxCell>
        <mxCell id="jTXSWWIvGgRx7QMcHlvk-55" value="" parent="1" style="endArrow=none;html=1;fontSize=14;fontColor=#030303;strokeWidth=3;" edge="1">
          <mxGeometry as="geometry" width="50" height="50" relative="1">
            <mxPoint as="sourcePoint" y="700" x="510" />
            <mxPoint as="targetPoint" y="700" x="770" />
          </mxGeometry>
        </mxCell>
        <mxCell id="jTXSWWIvGgRx7QMcHlvk-56" value="" parent="1" style="endArrow=none;html=1;fontSize=14;fontColor=#030303;strokeWidth=3;" edge="1">
          <mxGeometry as="geometry" width="50" height="50" relative="1">
            <mxPoint as="sourcePoint" y="90" x="510" />
            <mxPoint as="targetPoint" y="90" x="770" />
          </mxGeometry>
        </mxCell>
      </root>
    </mxGraphModel>
  </diagram>
</mxfile>
